# xmcd
#
# Track frame offsets:
#	150
#	34078
#	60320
#	84663
#	107130
#	118639
#	139790
#	165029
#	188507
#	213714
#	238143
#	269578
#
# Disc length: 4078 seconds
#
# Revision: 0
# Processed by: cddbd v1.5.2PL0 Copyright (c) Steve Scherf et al.
# Submitted via: EasyCDDAExtractor 2010.4.0.0
#
DISCID=a20fec0c
DTITLE=Eric Gales - Transformation
DYEAR=1900
DGENRE=
TTITLE0=Railroaded
TTITLE1=Sea of Bad Blood
TTITLE2=Too Late To Cry
TTITLE3=I Wouldn t Treat A Dog That Way
TTITLE4=Double Dippin
TTITLE5=Tortured Mind
TTITLE6=I Pity The Fool
TTITLE7=Altered Destiny
TTITLE8=Time Waits For No One
TTITLE9=Catchin Up With The Past
TTITLE10=Transformation
TTITLE11=Sometimes Wrong Feels Right
EXTD=
EXTT0=
EXTT1=
EXTT2=
EXTT3=
EXTT4=
EXTT5=
EXTT6=
EXTT7=
EXTT8=
EXTT9=
EXTT10=
EXTT11=
PLAYORDER=
